# xmcd
#
# Track frame offsets:
#	150
#	18654
#	36833
#	57502
#	76419
#	92100
#	109091
#	129924
#	148535
#	165369
#	183873
#	202052
#	221300
#	240217
#	255898
#	272889
#	293722
#	312333
#
# Disc length: 4388 seconds
#
# Revision: 3
# Processed by: cddbd v1.5.2PL0 Copyright (c) Steve Scherf et al.
# Submitted via: audiograbber 1.83.01
#
DISCID=f4112212
DTITLE=Various Artist - PHP712
DYEAR=2007
DGENRE=Karaoke
TTITLE0=Fergie - Clumsy
TTITLE1=Will I Am - Nicole Scherzinger - Baby Love 
TTITLE2=Britney Spears - Gimme More
TTITLE3=Celine Dion - Taking Chances
TTITLE4=Mat Kearney - Breathe In, Breathe Out
TTITLE5=Chad Kroeger - Santana - Into The Night
TTITLE6=Foo Fighters - The Pretender
TTITLE7=The Fray - All At Once
TTITLE8=Jimmy Eat World - Big Casino
TTITLE9=Fergie (vocal) - Clumsy
TTITLE10=Will I Am - Nicole Scherzinger (vocal) - Baby Love
TTITLE11=Briney spears (vocal) - Gimme More
TTITLE12=Celine Dion (vocal) - Taking Chances
TTITLE13=Mat Kearney (vocal) - Breathe In, Breathe Out
TTITLE14=Chad Kroeger - Santana (vocal) - Into The Night
TTITLE15=Foo Fighters (vocal) - The Pretender
TTITLE16=The Fray (vocal) - All At Once
TTITLE17=Jimmy Eat World (vocal) - Big Casino
EXTD=accurate info category needs changed to misc
EXTT0=
EXTT1=
EXTT2=
EXTT3=
EXTT4=
EXTT5=
EXTT6=
EXTT7=
EXTT8=
EXTT9=
EXTT10=
EXTT11=
EXTT12=
EXTT13=
EXTT14=
EXTT15=
EXTT16=
EXTT17=
PLAYORDER=
